<?xml version="1.0" encoding="UTF-8"?><svg id="_레이어_2" xmlns="http://www.w3.org/2000/svg" viewBox="0 0 128.22 83.32"><defs><style>.cls-1{fill:#fff;}</style></defs><g id="_레이어_1-2"><g><g><path class="cls-1" d="M3.19,.33V15.74H0V.33H3.19Z"/><path class="cls-1" d="M6.6,15.74V.33h3.77c4.01,6.03,6.75,9.72,7.68,11.46h.04c-.15-1.75-.13-4.5-.13-7.01V.33h2.95V15.74h-3.56c-1.7-2.55-6.94-10.44-7.91-12.21h-.04c.13,1.94,.13,4.13,.13,6.86v5.35h-2.93Z"/><path class="cls-1" d="M24.32,.33h12.23V2.93h-9.03v4h8.43v2.64h-8.43v6.18h-3.19V.33Z"/><path class="cls-1" d="M50.44,9.02h-8.69v4.1h9.64l-.37,2.62h-12.46V.33h12.35V2.95h-9.16v3.45h8.69v2.62Z"/><path class="cls-1" d="M68.08,10.96c-.78,2.69-2.82,5.11-7.46,5.11-5.3,0-7.98-3.73-7.98-8.01S55.57,0,60.79,0c4.57,0,6.81,2.55,7.31,5.11h-3.23c-.43-1.11-1.38-2.55-4.12-2.55-3.04,0-4.74,2.31-4.74,5.37s1.6,5.61,4.76,5.61c2.39,0,3.41-.98,4.08-2.58h3.23Z"/><path class="cls-1" d="M74.4,2.93h-5.52V.33h14.21V2.93h-5.5V15.74h-3.19V2.93Z"/><path class="cls-1" d="M87.96,.33V15.74h-3.19V.33h3.19Z"/><path class="cls-1" d="M106.83,7.97c0,4.3-2.85,8.1-8.26,8.1-5.07,0-8.06-3.58-8.06-8.08,0-4.26,3.13-7.99,8.19-7.99s8.13,3.76,8.13,7.97Zm-12.96-.02c0,3.04,1.64,5.55,4.87,5.55s4.7-2.69,4.7-5.48-1.53-5.46-4.85-5.46c-3.15,0-4.72,2.58-4.72,5.39Z"/><path class="cls-1" d="M109.22,15.74V.33h3.77c4.01,6.03,6.75,9.72,7.68,11.46h.04c-.15-1.75-.13-4.5-.13-7.01V.33h2.95V15.74h-3.56c-1.7-2.55-6.94-10.44-7.91-12.21h-.04c.13,1.94,.13,4.13,.13,6.86v5.35h-2.93Z"/><path class="cls-1" d="M0,22.61H8.06c3.51,0,5.15,1.68,5.15,3.93,0,1.83-1.16,2.88-2.35,3.3,1.44,.44,2.91,1.53,2.91,3.62,0,2.95-2.29,4.56-5.76,4.56H0v-15.42Zm7.37,6.14c1.83,0,2.52-.7,2.52-1.81,0-1.38-1.03-1.86-2.48-1.86H3.15v3.67H7.37Zm-4.23,6.83H7.53c1.55,0,2.89-.48,2.89-2.23,0-1.42-1.04-2.16-2.91-2.16H3.15v4.39Z"/><path class="cls-1" d="M19.32,22.61v15.42h-3.19v-15.42h3.19Z"/><path class="cls-1" d="M37.41,38.03h-2.35c-.09-.35-.19-1.2-.22-1.81-.99,1.33-2.37,2.14-5.28,2.14-4.89,0-7.7-3.36-7.7-7.97s2.98-8.1,8.28-8.1c4.79,0,6.86,2.58,7.31,4.83h-3.23c-.39-.98-1.42-2.34-4.08-2.34-3.34,0-4.92,2.4-4.92,5.46,0,3.21,1.62,5.61,4.94,5.61,2.76,0,4.14-1.44,4.14-3.67v-.31h-4.1v-2.55h7.2v8.71Z"/><path class="cls-1" d="M40.33,22.61h6.66c5.07,0,7.89,3.32,7.89,7.45,0,4.93-3.54,7.97-7.96,7.97h-6.6v-15.42Zm3.19,12.86h2.95c3.32,0,5.02-1.96,5.02-5.33,0-3.08-1.72-4.98-4.94-5h-3.04v10.33Z"/><path class="cls-1" d="M59.93,34.14l-1.53,3.89h-3.3l6.27-15.42h4.03l6.58,15.42h-3.47l-1.62-3.89h-6.96Zm6.04-2.62c-1.55-3.78-2.31-5.63-2.67-6.77h-.02c-.32,1.09-1.21,3.54-2.48,6.77h5.17Z"/><path class="cls-1" d="M75.13,25.21h-5.52v-2.6h14.21v2.6h-5.5v12.82h-3.19v-12.82Z"/><path class="cls-1" d="M86.47,34.14l-1.53,3.89h-3.3l6.27-15.42h4.03l6.58,15.42h-3.47l-1.62-3.89h-6.96Zm6.04-2.62c-1.55-3.78-2.31-5.63-2.67-6.77h-.02c-.32,1.09-1.21,3.54-2.48,6.77h5.17Z"/><path class="cls-1" d="M11.88,53.58H3.19v4.1H12.83l-.37,2.62H0v-15.42H12.35v2.62H3.19v3.45H11.88v2.62Z"/><path class="cls-1" d="M25.55,60.31l-4.23-5.72h-.06l-4.1,5.72h-3.58l5.91-7.88-5.71-7.53h3.77l3.92,5.31h.02l3.95-5.31h3.49l-5.76,7.4,6.08,8.01h-3.71Z"/><path class="cls-1" d="M44.31,55.53c-.78,2.69-2.82,5.11-7.46,5.11-5.3,0-7.98-3.73-7.98-8.01s2.93-8.06,8.15-8.06c4.57,0,6.81,2.55,7.31,5.11h-3.23c-.43-1.11-1.38-2.55-4.12-2.55-3.04,0-4.74,2.31-4.74,5.37s1.6,5.61,4.76,5.61c2.39,0,3.41-.98,4.08-2.58h3.23Z"/><path class="cls-1" d="M46.34,44.89h3.19v5.94h7.7v-5.94h3.19v15.42h-3.19v-6.88h-7.7v6.88h-3.19v-15.42Z"/><path class="cls-1" d="M66.64,56.42l-1.53,3.89h-3.3l6.27-15.42h4.03l6.58,15.42h-3.47l-1.62-3.89h-6.96Zm6.04-2.62c-1.55-3.78-2.31-5.63-2.67-6.77h-.02c-.32,1.09-1.21,3.54-2.48,6.77h5.17Z"/><path class="cls-1" d="M80.07,60.31v-15.42h3.77c4.01,6.03,6.75,9.72,7.68,11.46h.04c-.15-1.75-.13-4.5-.13-7.01v-4.45h2.95v15.42h-3.56c-1.7-2.55-6.94-10.44-7.91-12.21h-.04c.13,1.94,.13,4.13,.13,6.86v5.35h-2.93Z"/><path class="cls-1" d="M112.48,60.31h-2.35c-.09-.35-.19-1.2-.22-1.81-.99,1.33-2.37,2.14-5.28,2.14-4.89,0-7.7-3.36-7.7-7.97s2.98-8.1,8.28-8.1c4.79,0,6.86,2.58,7.31,4.83h-3.23c-.39-.98-1.42-2.34-4.08-2.34-3.34,0-4.92,2.4-4.92,5.46,0,3.21,1.62,5.61,4.94,5.61,2.76,0,4.14-1.44,4.14-3.67v-.31h-4.1v-2.55h7.2v8.71Z"/><path class="cls-1" d="M127.27,53.58h-8.69v4.1h9.64v2.62h-12.83v-15.42h12.35v2.62h-9.16v3.45h8.69v2.62Z"/></g><g><path class="cls-1" d="M6.38,71.64c0,3.21-2.13,5.47-5.8,6.44l-.55-1.13c2.9-.77,4.59-2.28,4.82-4.16H.59v-1.15H6.38Zm-4.52,6.78h7.92v4.72H1.86v-4.72Zm1.4,3.58h5.12v-2.46H3.26v2.46Zm8.28-7.07h-1.76v2.95h-1.41v-7h1.41v2.88h1.76v1.17Z"/><path class="cls-1" d="M22.58,70.89v7.09h-1.42v-1.48h-2.98c-.58,.63-1.47,1.02-2.49,1.02-1.84,0-3.23-1.22-3.23-2.97s1.39-2.97,3.23-2.97c1.02,0,1.89,.37,2.47,1h2.99v-1.69h1.42Zm-5,3.65c0-1.07-.8-1.79-1.88-1.79s-1.88,.71-1.88,1.79,.8,1.79,1.88,1.79,1.88-.71,1.88-1.79Zm-3.14,4.04h8.14v4.56H14.44v-4.56Zm1.39,3.43h5.37v-2.31h-5.37v2.31Zm5.34-6.66v-1.62h-2.35c.07,.25,.11,.52,.11,.81s-.04,.56-.11,.81h2.35Z"/><path class="cls-1" d="M30.79,77.54h-5.71v-5.89h1.4v1.84h2.92v-1.84h1.39v1.17h2.58v-1.92h1.41v7.47h-1.41v-1.85h-2.58v1.03Zm-1.39-2.94h-2.92v1.81h2.92v-1.81Zm5.44,6.34c0,1.48-1.59,2.35-4.19,2.35s-4.17-.87-4.17-2.35,1.59-2.35,4.17-2.35,4.19,.88,4.19,2.35Zm-1.41,0c0-.81-1.02-1.25-2.77-1.25s-2.76,.44-2.76,1.25,1,1.25,2.76,1.25,2.77-.44,2.77-1.25Zm-2.64-6.98v1.39h2.58v-1.39h-2.58Z"/><path class="cls-1" d="M42.18,71.62v1.83h3.09v-1.83h1.41v5.96h-5.91v-5.96h1.4Zm8.19,7.36v4.31h-1.42v-3.17h-6.95v-1.14h8.36Zm-8.19-2.54h3.09v-1.9h-3.09v1.9Zm8.19-5.55v7.46h-1.42v-7.46h1.42Z"/><path class="cls-1" d="M54.17,79.24c1.54-.01,2.6-.08,3.82-.34l.12,1.17c-1.4,.27-2.61,.34-4.5,.34h-.84v-8.06h4.7v1.15h-3.3v5.74Zm4.89-8.09h1.33v11.55h-1.33v-6.01h-2.44v-1.15h2.44v-4.38Zm3.89-.28v12.4h-1.36v-12.4h1.36Z"/><path class="cls-1" d="M71.36,76.17c0,2.69-1.35,4.38-3.2,4.38s-3.19-1.69-3.19-4.38,1.35-4.37,3.19-4.37,3.2,1.7,3.2,4.37Zm-5.03,0c0,1.95,.76,3.12,1.83,3.12s1.84-1.17,1.84-3.12-.75-3.09-1.84-3.09-1.83,1.17-1.83,3.09Zm8.43-5.29v12.44h-1.43v-12.44h1.43Z"/><path class="cls-1" d="M78.73,79.26c1.98-.01,3.39-.08,5.01-.36l.12,1.14c-1.77,.32-3.32,.37-5.58,.37h-.97v-8.45h5.75v1.17h-4.34v2.32h3.83v1.13h-3.83v2.68Zm8.34-8.39v12.44h-1.43v-6.72h-2.38v-1.17h2.38v-4.56h1.43Z"/><path class="cls-1" d="M98.63,72.2c0,3.64-1.35,6.76-5.55,8.84l-.75-1.1c3.23-1.59,4.63-3.78,4.86-6.59h-4.31v-1.15h5.75Zm4.04-1.3v12.42h-1.43v-6.37h-2.66v-1.17h2.66v-4.88h1.43Z"/><path class="cls-1" d="M106.35,79.26c1.29-.01,2.5-.08,3.91-.32l.12,1.15c-1.66,.29-3.03,.33-4.56,.33h-.84v-4.83h3.27v-2.27h-3.3v-1.15h4.66v4.56h-3.27v2.53Zm8.83-8.36v12.39h-1.35v-6.44h-1.47v5.84h-1.33v-11.54h1.33v4.54h1.47v-4.79h1.35Z"/><path class="cls-1" d="M128.05,80.59v1.17h-11.23v-1.17h4.85v-2.9h1.42v2.9h4.97Zm-1.07-2.65c-2.03-.4-3.79-1.63-4.59-3.28-.82,1.65-2.58,2.88-4.6,3.28l-.6-1.18c2.46-.41,4.45-2.27,4.45-4.17v-.93h1.5v.93c0,1.92,1.99,3.76,4.44,4.17l-.59,1.18Z"/></g></g></g></svg>